<?xml version="1.0" encoding="utf-8"?>
<?xml-stylesheet type="text/xsl" href="rss1.xsl"?>
<rss version="2.0" xmlns:atom="http://www.w3.org/2005/Atom" xmlns:content="http://purl.org/rss/1.0/modules/content/" xmlns:dc="http://purl.org/dc/elements/1.1/" xmlns:media="http://search.yahoo.com/mrss/">
<channel>
 <title>Getty</title>
 <link>http://www.gettyimg.com/</link>
 <atom:link href="http://www.gettyimg.com/" rel="self" type="application/rss+xml" />

 
                <item>
                <title><![CDATA[【UPSCALED】John Williams &amp; Vienna Philharmonic - Theme from Jurassic Park [4K AI Upscale HEVC 10-bit / TrueHD Dolby Atmos / DTS-HD MA 5.1]]]></title>
                <link><![CDATA[https://sharemania.us/threads/john-williams-vienna-philharmonic-theme-from-jurassic-park-4k-ai-upscale-hevc-10-bit-truehd-dolby-atmos-dts-hd-ma-5-1.221116/]]></link>
                <description><![CDATA[<article>
<blockquote class="messageText SelectQuoteContainer ugc baseHtml">
<img src="https://images2.imgbox.com/0f/02/XWpvwqje_o.jpg" class="bbCodeImage LbImage" alt="[​IMG]" data-url="https://images2.imgbox.com/0f/02/XWpvwqje_o.jpg" style=""><br>
<br>
<b>Genre: <span style="color: #0059b3">Classical, Stage &amp; Screen</span> <br>
Style: <span style="color: #0059b3">Soundtrack, Neo-Romantic, Score</span> <br>
Year: <span style="color: #0059b3">1993 (this recording: 2020)</span></b><br>
<br>
"<b>Theme from Jurassic Park</b>" is is part of the film score to the 1993 Steven Spielberg film Jurassic Park, composed by American composer, conductor, and pianist John Williams. The score received critical acclaim and is often considered to be one of the most iconic and beloved scores of Williams' career. The main theme of <i>Jurassic Park</i> is widely regarded as one of John Williams' greatest themes.<br>
<br>
<i>"Without John Williams, bikes don't really fly, nor do brooms in Quidditch matches, nor do men in red capes,There is no force, dinosaurs do not walk the Earth, we do not wonder, we do not weep, we do not believe." - </i>Steven Spielberg<br>
<br>
This music video is muxed from the blu-ray release of "John Williams In Vienna", the live recordings of the Hollywood legend's Vienna Philharmonic 2020 debut. Saying it's "one of the greatest honors of my life," he received a standing ovation before a single note was played. Sharing the stage with the famous orchestra and violinist Anne-Sophie Mutter, he performs iconic themes from Star Wars, Harry Potter, Indiana Jones, Jurassic Park and other cinematic landmarks that have earned countless awards: 5 Oscars, 5 Emmys, 25 Grammys &amp; more.<br>
<br>
<b>Release Info</b><br>
The video track is upscaled to 4K with Topaz Video AI and converted to HEVC 10-bit.<br>
Audio track #1: TrueHD Dolby Atmos / 24-bit 48 kHz<br>
Audio track #2: DTS-HD MA 5.1 / 24-bit 48 kHz<br>
Audio track #3: DTS-HD MA 2.0 / 24-bit 96 kHz<br>
<br>
<div class="ToggleTriggerAnchor bbCodeSpoilerContainer">
<button type="button" class="button bbCodeSpoilerButton ToggleTrigger Tooltip JsOnly" data-target="> .SpoilerTarget"><span>Spoiler: <span class="SpoilerTitle">Media Info</span></span></button>
<div class="SpoilerTarget bbCodeSpoilerText">
<div class="bbCodeBlock bbCodeCode">
<div class="type">Code:</div>
<pre>General
Unique ID                      : 269996331816231840210111097632560410236 (0xCB1F66EB91052B31B1C2647FA02E6E7C)
Complete name                  : John Williams &amp; Vienna Philharmonic - Theme from Jurassic Park.mkv
Format                         : Matroska
Format version                 : Version 4
File size                      : 1.44 GiB
Duration                       : 6 min 33 s
Overall bit rate mode          : Variable
Overall bit rate               : 31.4 Mb/s
Encoded date                   : UTC 2023-05-16 19:41:33
Writing application            : mkvmerge v76.0 ('Celebration') 64-bit
Writing library                : libebml v1.4.4 + libmatroska v1.7.1

Video
ID                             : 1
Format                         : HEVC
Format/Info                    : High Efficiency Video Coding
Format profile                 : Main 10@L5@Main
Codec ID                       : V_MPEGH/ISO/HEVC
Duration                       : 6 min 33 s
Bit rate                       : 19.9 Mb/s
Width                          : 3 840 pixels
Height                         : 2 160 pixels
Display aspect ratio           : 16:9
Frame rate mode                : Constant
Frame rate                     : 29.970 (30000/1001) FPS
Color space                    : YUV
Chroma subsampling             : 4:2:0
Bit depth                      : 10 bits
Scan type                      : Interlaced
Scan type, store method        : Interleaved fields
Scan order                     : Top Field First
Bits/(Pixel*Frame)             : 0.080
Stream size                    : 934 MiB (64%)
Title                          : 4K AI Upscale
Language                       : English
Default                        : Yes
Forced                         : No
Color range                    : Limited

Audio #1
ID                             : 2
ID in the original source medi : 4354 (0x1102)
Format                         : MLP FBA 16-ch
Format/Info                    : Meridian Lossless Packing FBA with 16-channel presentation
Commercial name                : Dolby TrueHD with Dolby Atmos
Codec ID                       : A_TRUEHD
Duration                       : 6 min 33 s
Bit rate mode                  : Variable
Bit rate                       : 4 000 kb/s
Maximum bit rate               : 5 925 kb/s
Channel(s)                     : 8 channels
Channel layout                 : L R C LFE Ls Rs Lb Rb
Sampling rate                  : 48.0 kHz
Frame rate                     : 1 200.000 FPS (40 SPF)
Bit depth                      : 24 bits
Compression mode               : Lossless
Delay relative to video        : 1 ms
Stream size                    : 188 MiB (13%)
Title                          : Dolby Atmos 24-bit 48 kHz
Language                       : English
Default                        : Yes
Forced                         : No
Original source medium         : Blu-ray
Number of dynamic objects      : 15
Bed channel count              : 1 channel
Bed channel configuration      : LFE

Audio #2
ID                             : 3
ID in the original source medi : 4353 (0x1101)
Format                         : DTS XLL
Format/Info                    : Digital Theater Systems
Commercial name                : DTS-HD Master Audio
Codec ID                       : A_DTS
Duration                       : 6 min 33 s
Bit rate mode                  : Variable
Bit rate                       : 4 287 kb/s
Channel(s)                     : 6 channels
Channel layout                 : C L R Ls Rs LFE
Sampling rate                  : 48.0 kHz
Frame rate                     : 93.750 FPS (512 SPF)
Bit depth                      : 24 bits
Compression mode               : Lossless
Delay relative to video        : 4 ms
Stream size                    : 201 MiB (14%)
Title                          : Surround 5.1 24-bit 48 kHz
Language                       : English
Default                        : Yes
Forced                         : No
Original source medium         : Blu-ray

Audio #3
ID                             : 4
ID in the original source medi : 4352 (0x1100)
Format                         : DTS XLL
Format/Info                    : Digital Theater Systems
Commercial name                : DTS-HD Master Audio
Codec ID                       : A_DTS
Duration                       : 6 min 33 s
Bit rate mode                  : Variable
Bit rate                       : 3 084 kb/s
Channel(s)                     : 2 channels
Channel layout                 : L R
Sampling rate                  : 96.0 kHz
Frame rate                     : 187.500 FPS (512 SPF)
Bit depth                      : 24 bits
Compression mode               : Lossless
Delay relative to video        : 4 ms
Stream size                    : 145 MiB (10%)
Title                          : Stereo 24-bit 96 kHz
Language                       : English
Default                        : Yes
Forced                         : No
Original source medium         : Blu-ray

Menu
00:00:00.000                   : Chapter 08
</pre>
</div></div>
</div><br>
<div class="bbCodeBlock bbCodeVfcHH HiddenContent">
<div class="attribution type">Hidden Content:</div>
<blockquote>You must reply before you can see the hidden data contained here.</blockquote>
</div>
<div class="messageTextEndMarker">&nbsp;</div>
</blockquote>
</article>]]></description>
                <author><![CDATA[ADHDerby]]></author>
                </item>

                
                <item>
                <title><![CDATA[【Requests】[REQ VID] - JISOO - Flower (4K Pro-Res)]]></title>
                <link><![CDATA[https://sharemania.us/threads/jisoo-flower-4k-pro-res.221118/]]></link>
                <description><![CDATA[<article>
<blockquote class="messageText SelectQuoteContainer ugc baseHtml">
<img src="https://blogger.googleusercontent.com/img/b/R29vZ2xl/AVvXsEjMbdrtaRfmhr5GdxtyIsEcFiU5lRnPs7aGZbKkIxne0kuaSIR_MBEB5DW08T-aNiZipbKwl2csqmxK83nO2sRIaubQZjN0Rpgh_VBitJmzVV8fjcCtJMOAo5ezqyBz3F4J5k8xKSjLcjetvvX-K-Da8ActnHwvk_IXBhX3v4gUqxXeLfI5dJ_N4KvEPA/s1468/JISOO%20-%20Flower_KRZ352300001.mov.jpg" class="bbCodeImage LbImage" alt="[​IMG]" data-url="https://blogger.googleusercontent.com/img/b/R29vZ2xl/AVvXsEjMbdrtaRfmhr5GdxtyIsEcFiU5lRnPs7aGZbKkIxne0kuaSIR_MBEB5DW08T-aNiZipbKwl2csqmxK83nO2sRIaubQZjN0Rpgh_VBitJmzVV8fjcCtJMOAo5ezqyBz3F4J5k8xKSjLcjetvvX-K-Da8ActnHwvk_IXBhX3v4gUqxXeLfI5dJ_N4KvEPA/s1468/JISOO%20-%20Flower_KRZ352300001.mov.jpg" style=""> <br>
Does anyone have JISOO Flower in Pro-Res? If you have please can I have it
<div class="messageTextEndMarker">&nbsp;</div>
</blockquote>
</article>]]></description>
                <author><![CDATA[nglmatt]]></author>
                </item>

                
                <item>
                <title><![CDATA[【Albums (lossless)】FLAC - Summer Walker – CLEAR 2: SOFT LIFE - EP | Qobuz CD 16bit / 44.1kHz]]></title>
                <link><![CDATA[https://sharemania.us/threads/summer-walker-%E2%80%93-clear-2-soft-life-ep-qobuz-cd-16bit-44-1khz.221117/]]></link>
                <description><![CDATA[<article>
<blockquote class="messageText SelectQuoteContainer ugc baseHtml">
<div style="text-align: center"><img src="https://static.qobuz.com/images/covers/qc/fc/e4utgfm17fcqc_600.jpg" class="bbCodeImage LbImage" alt="[​IMG]" data-url="https://static.qobuz.com/images/covers/qc/fc/e4utgfm17fcqc_600.jpg" style=""><br>
<span style="font-size: 15px"><b>Summer Walker – CLEAR 2: SOFT LIFE - EP</b></span><br>
<br>
<b>Year:</b> 2023-05-19<br>
<b>Genre:</b> R&amp;B/Soul<br>
<br>
<span style="font-size: 12px"><b>Tracklist</b></span><br>
<b>1.</b> Summer Walker &amp; J. Cole – To Summer, From Cole (Audio Hug) <i>(02:27)</i><br>
<b>2.</b> Hardlife <i>(03:13)</i><br>
<b>3.</b> How Does It Feel <i>(02:42)</i><br>
<b>4.</b> Mind Yo Mouth <i>(02:28)</i><br>
<b>5.</b> Pull Up <i>(03:01)</i><br>
<b>6.</b> New Type (feat. Childish Gambino) <i>(04:25)</i><br>
<b>7.</b> Finding Peace <i>(03:03)</i><br>
<b>8.</b> Set Up (2017) <i>(02:06)</i><br>
<b>9.</b> Agayu's Revelation <i>(04:39)</i><br>
<b>10.</b> Soft Life Summer <i>(00:51)</i><br>
<br>
<b>Total length:</b> 28:55<br>
<div class="bbCodeBlock bbCodeVfcHH HiddenContent">
<div class="attribution type">Hidden Content:</div>
<blockquote>You must reply before you can see the hidden data contained here.</blockquote>
</div></div>
<div class="messageTextEndMarker">&nbsp;</div>
</blockquote>
</article>]]></description>
                <author><![CDATA[Yennefer]]></author>
                </item>

                </channel></rss>